<?xml version="1.0" encoding="UTF-8" standalone="no"?>
<svg xmlns:rdf="http://www.w3.org/1999/02/22-rdf-syntax-ns#" xmlns="http://www.w3.org/2000/svg" xml:space="preserve" height="422.81" viewBox="0 0 540.61249 422.8075" width="540.61" version="1.1" xmlns:cc="http://creativecommons.org/ns#" xmlns:dc="http://purl.org/dc/elements/1.1/"><g transform="matrix(1.25 0 0 -1.25 0 422.81)"><g transform="translate(196.93 123.45)"><path d="m0 0c1.29-1.569 1.212-2.274-0.482-3.508-0.924-0.674-1.942-1.224-2.846-1.922-1.062-0.821-2.322-1.59-1.934-3.463 3.231 0.55 6.336 1.05 9.421 1.648 0.28 0.054 0.541 0.712 0.631 1.128 0.169 0.784 0.194 1.599 0.301 2.398 0.804 5.982 1.62 11.962 2.397 17.947 0.041 0.313-0.186 0.708-0.396 0.982-0.081 0.106-0.605 0.074-0.686-0.051-1.106-1.709-3.004-3.413-3.071-5.181-0.141-3.713-1.824-6.653-3.335-9.978m-80.019-22.791c3.957 1.056 7.422 2.1 10.946 2.885 2.958 0.66 5.194 1.46 6.669 4.781 2.64 5.943 6.16 11.502 9.409 17.166 0.898 1.565 0.445 2.418-0.887 3.315-2.061 1.388-4.03 2.913-6.06 4.348-1.098 0.776-2.059 0.904-2.782-0.575-0.938-1.916-1.974-3.786-3.001-5.658-1.609-2.93-3.287-5.823-4.859-8.772-1.63-3.058-3.122-6.189-4.759-9.243-1.415-2.639-2.95-5.215-4.676-8.247m189.64 73.018c-1.991-0.696-4.037-1.397-6.071-2.129-0.958-0.344-1.871-0.828-2.845-1.113-2.837-0.835-5.744-1.485-8.548-2.44-1.571-0.536-3.099-1.376-4.446-2.356-3.045-2.216-5.786-4.896-8.978-6.852-5.094-3.122-9.592-6.831-13.371-11.43-0.49-0.597-0.775-1.361-1.254-1.97-1.136-1.443-2.489-2.739-3.462-4.279-1.112-1.759-1.516-4.113-2.924-5.503-2.55-2.517-3.985-5.435-4.895-8.769-0.352-1.287-0.86-2.531-1.308-3.826 1.094-0.074 2.168-0.186 3.245-0.213 5.655-0.143 11.316-0.157 16.964-0.426 5.364-0.257 10.13-2.439 14.646-5.181 1.222-0.742 1.601-1.673 0.428-2.952-3.798-4.14-9.025-5.109-14.102-2.407-3.988 2.122-8.335 3.106-12.718 3.481-2.574 0.22-5.812 1.283-7.657-1.958-0.356-0.625-0.843-1.489-0.654-2.028 0.214-0.615 1.192-1.466 1.708-1.385 2.246 0.351 2.31-1.141 2.33-2.552 0.014-0.902-0.399-1.804-0.546-2.718-0.083-0.52-0.211-1.172 0.014-1.581 2.142-3.897 4.81-7.267 8.874-9.431 1.497-0.797 2.673-1.11 4.327-0.506 3.152 1.151 5.104 0.404 7.309-2.12 0.557-0.639 1.474-1.275 2.272-1.34 5.378-0.438 10.536 0.965 15.313 3.085 4.556 2.022 8.861 4.752 12.961 7.622 4.325 3.027 8.622 6.251 12.305 10.003 4.588 4.674 8.595 9.928 12.74 15.025 3.192 3.926 5.416 8.391 6.722 13.3 0.307 1.157-0.066 1.682-1.214 2.082-1.957 0.681-3.843 1.571-5.738 2.42-2.948 1.321-5.769 3.081-8.843 3.933-4.686 1.3-8.493 3.932-12.137 6.874-1.718 1.386-3.478 2.725-4.468 5.01-2.028 4.684-1.224 7.853 3.29 11.025 1.168 0.822 1.784 1.835 0.741 3.605m-162.97-8.102c-2.834 0.493-5.41 0.949-7.989 1.382-0.25 0.042-0.666 0.045-0.761-0.097-1.32-1.964-3.437-1.181-5.141-1.312-3.877-0.299-7.563 0.413-9.913 4.032-0.777 1.197-1.983 2.574-1.869 3.761 0.109 1.136-0.123 1.735-0.854 2.069-1.261 0.577-2.687 1.332-3.969 1.213-2.583-0.241-5.218-0.742-7.651-1.63-5.787-2.114-11.545-4.347-17.166-6.865-3.443-1.542-6.617-3.687-9.899-5.585-3.273-1.892-5.601-4.611-7.539-7.871-1.559-2.623-3.71-4.898-5.647-7.29-0.873-1.078-1.724-2.252-2.825-3.055-3.452-2.518-7.333-4.253-10.47-7.44-4.563-4.637-7.227-10.18-9.429-16.014-1.632-4.326-1.41-9.016-1.094-13.57 0.118-1.701 0.848-3.547 1.827-4.962 1.995-2.886 4.636-5.132 7.916-6.614 3.683-1.665 7.408-3.08 11.501-3.199 1.958-0.056 3.922-0.125 5.876-0.035 4.427 0.204 8.868 0.334 13.268 0.821 3.262 0.361 6.455 1.309 9.702 1.861 3.368 0.573 6.796 0.828 10.137 1.52 2.3 0.476 4.201 1.389 5.42 4.003 3.122 6.697 6.718 13.177 10.233 19.685 3.315 6.137 6.698 12.24 10.201 18.271 1.287 2.216 1.559 4.164 0.083 6.347-0.588 0.87-1.177 1.943-1.213 2.943-0.085 2.377-0.696 5.403 0.486 6.99 1.496 2.008 4.5 2.972 6.965 4.151 1.862 0.891 3.484-0.081 4.988-1.675 1.65 2.791 3.169 5.361 4.826 8.165m96.076 22.354c0.171-0.116 0.579-0.394 1.538-1.048-3.209-0.116-3.813-2.243-4.563-4.41 1.199-1.496 2.364-3.258 3.838-4.705 1.541-1.512 3.391-2.707 5.079-4.073 0.514-0.417 1.095-0.866 1.378-1.434 0.903-1.811 2.944-3.026 2.884-5.321-0.02-0.754-0.302-1.498-0.43-2.253-0.048-0.281 0.009-0.579 0.008-0.869-0.001-0.436 0.137-0.945-0.039-1.295-1.651-3.278-3.915-6.152-6.859-8.27-1.356-0.975-3.424-0.902-5.093-1.514-1.825-0.669-3.44-0.407-5.254 0.148-0.834 0.256-2.314-0.493-3.052-1.234-2.322-2.321-4.576-4.736-6.532-7.352-1.072-1.434-1.829-3.287-2.155-5.057-0.649-3.537-0.87-7.152-1.342-10.725-0.153-1.16-0.676-2.275-0.785-3.433-0.167-1.77-0.123-3.56-0.183-5.945 4.927 0.78 9.566 1.463 14.177 2.305 0.613 0.112 1.295 0.936 1.578 1.589 2.121 4.906 4.065 9.889 6.258 14.76 0.676 1.5 2.196 2.614 2.903 4.107 1.676 3.54 4.814 5.904 6.92 9.05 2.544 3.802 6.294 6.359 9.373 9.599 2.379 2.505 5.356 4.52 8.294 6.397 4.448 2.841 9.037 5.475 13.673 8.002 3.327 1.814 6.847 3.273 10.246 4.959 2.033 1.007 3.928 2.326 6.019 3.175 1.946 0.791 4.088 1.082 6.109 1.709 2.116 0.656 4.188 1.453 6.282 2.181 3.792 1.321 7.698 1.346 11.473 0.297 2.452-0.682 4.886-1.835 6.307-4.284 0.961-1.656 2.562-1.222 3.852-0.774 2.27 0.788 4.4 1.969 6.648 2.832 3.564 1.368 7.191 2.571 10.765 3.914 4.305 1.618 8.543 3.421 12.882 4.937 4.371 1.527 8.845 2.756 13.245 4.2 2.37 0.778 4.626 1.947 7.03 2.564 4.363 1.122 8.786 2.021 13.206 2.904 3.371 0.674 7.983-2.295 9.024-5.649 0.098-0.315 0.238-0.671 0.473-0.881 1.747-1.569 1.413-3.612 0.636-5.248-0.823-1.735-1.964-3.386-4.433-3.695-3.282-0.411-3.682-0.605-4.816 2.545-1.341 3.727-8.192 5.798-10.906 3.537-0.337-0.281-1.017-0.121-1.521-0.238-1.582-0.367-3.151-0.794-4.737-1.146-0.529-0.117-1.186 0.097-1.624-0.138-3.681-1.974-7.866-2.149-11.743-3.397-0.571-0.184-1.002-0.802-1.734-1.419-0.987 0.118-2.247 0.584-3.607-0.921-0.896-0.993-3.011-0.799-4.497-1.358-5.33-2.003-10.65-4.036-15.916-6.199-1.728-0.71-3.276-1.856-4.914-2.789-0.218-0.124-0.507-0.284-0.718-0.235-3.088 0.713-4.005-1.723-5.161-3.647-1.206-2.006-3.036-2.364-5.315-2.483-2.541-0.133-5.149-1.113-7.484-2.233-1.323-0.635-0.909-3.607 0.442-4.915 4.063-3.931 8.624-7.132 13.929-9.175 1.222-0.471 2.514-0.758 4.019-1.202 0.181 0.295 0.511 0.83 0.786 1.276-1.781 1.49-3.498 2.769-5.02 4.247-1.465 1.423-1.281 2.323 0.252 3.604 0.421 0.351 0.576 1.004 0.949 1.436 0.397 0.457 0.866 1.031 1.386 1.133 0.288 0.056 1.028-0.724 1.07-1.173 0.114-1.214 0.712-1.661 1.824-1.701 2.379-0.086 4.189-1.342 5.88-2.86 0.782-0.701 1.647-1.312 2.411-2.032 0.374-0.353 0.79-0.832 0.862-1.303 0.281-1.832 0.345-3.699 0.669-5.521 0.139-0.78-0.304-2.491 1.636-1.703 0.067 0.027 0.246-0.119 0.321-0.222 1.609-2.199 4.153-2.81 6.447-3.887 3.01-1.414 5.929-3.02 8.906-4.507 2.704-1.349 5.703-2.282 8.092-4.048 4.859-3.592 9.801-7.266 12.248-13.139 1.734-4.161 0.746-8.257-1.226-11.927-1.607-2.99-3.677-5.75-6.523-7.948-2.248-1.736-4.476-3.318-7.021-4.603-2.244-1.133-4.191-2.856-6.272-4.313-0.163-0.114-0.354-0.191-0.537-0.274-1.439-0.651-2.861-1.342-4.322-1.937-1.666-0.679-3.377-1.246-5.05-1.906-5.284-2.087-10.522-4.296-15.849-6.265-5.229-1.932-10.519-3.713-15.835-5.396-2.865-0.907-5.815-1.601-8.772-2.152-3.672-0.684-7.385-1.171-11.093-1.645-1.652-0.211-1.956 0.489-1.368 2.058 0.924 2.46 3.465 2.361 5.225 3.45 2.362 1.46 5.116 1.651 7.888 1.968 4.248 0.485 8.448 1.532 12.609 2.576 3.119 0.782 6.23 1.732 9.197 2.964 6.754 2.803 13.548 5.567 20.069 8.856 3.873 1.954 7.446 4.646 10.814 7.419 3.714 3.059 5.79 7.148 4.991 12.151-0.244 1.529-0.737 3.263-1.712 4.386-3.385 3.899-7.168 7.43-11.724 9.962-2.826 1.571-5.686 3.173-8.712 4.252-1.773 0.632-3.902 0.295-5.872 0.316-0.33 0.003-0.825-0.315-0.972-0.617-1.126-2.311-2.059-4.725-3.312-6.962-0.748-1.336-2.043-2.352-2.952-3.613-2.302-3.192-4.486-6.471-6.804-9.652-0.689-0.947-1.616-1.743-2.516-2.513-4.147-3.549-8.271-7.128-12.505-10.571-3.004-2.444-6.007-4.961-9.306-6.955-4.262-2.576-8.751-4.809-13.267-6.923-5.355-2.507-11.083-3.522-16.996-3.748-2.566-0.098-5.114-0.718-7.667-1.115-1.971-0.307-3.766-0.101-5.695 0.718-2.317 0.983-5.027 1.027-7.362 1.98-4.371 1.785-8.569 3.989-11.388 8.022-1.94 2.775-4.254 5.421-5.544 8.485-1.448 3.44-1.966 7.278-2.825 10.957-0.601 2.579-1.061 2.64-3.541 2.512-4.346-0.224-8.152-1.791-11.961-3.519-2.129-0.966-1.463-3.26-1.846-4.934-0.468-2.044-0.235-4.243-0.376-6.371-0.038-0.587-0.405-1.148-0.489-1.74-0.192-1.356-0.638-2.792-0.377-4.072 0.546-2.67 0.481-5.062-0.838-7.565-0.801-1.52-1.189-3.435-1.178-5.169 0.021-3.13 0.613-6.253 0.716-9.387 0.091-2.755 1.341-4.954 2.573-7.282 1.495-2.824-0.112-6.46-3.094-7.663-0.062-0.025-0.146-0.027-0.188-0.071-2.631-2.751-5.873-1.545-8.963-1.415-1.822 0.076-3.671 0.184-5.471-0.03-3.538-0.421-6.834 0.245-10.01 1.728-1.968 0.919-2.269 2.287-1.469 4.332 1.91 4.882 5.112 8.944 7.918 13.277 1.206 1.862 1.864 4.204 2.29 6.421 1.233 6.417 2.222 12.88 3.309 19.325 0.167 0.989 0.346 1.977 0.541 3.086-0.376 0.112-0.723 0.132-0.96 0.303-0.522 0.379-1.417 0.868-1.387 1.251 0.057 0.737 0.477 1.774 1.061 2.073 1.167 0.597 1.968 1.135 1.447 2.848-1.539-0.285-3.104-0.507-4.634-0.873-2.494-0.597-4.983-1.228-7.441-1.957-1.853-0.549-3.668-1.236-5.474-1.927-2.078-0.794-4.35-1.342-6.127-2.585-1.747-1.222-3.06-3.117-4.42-4.83-2.447-3.083-4.854-6.203-7.131-9.412-0.705-0.994-1.135-2.291-1.341-3.508-0.513-3.031-1.716-5.193-4.985-6.109-1.336-0.375-2.357-1.895-3.503-2.914-1.389-1.233-2.821-2.426-4.124-3.746-2.359-2.389-4.588-4.908-6.959-7.285-3.341-3.35-6.824-6.523-11.759-7.337-0.591-0.097-1.231-0.319-1.777-0.188-1.092 0.263-2.135 0.73-3.199 1.112 0.543 1.034 0.875 2.288 1.675 3.052 1.407 1.342 3.004 2.552 4.693 3.517 3.943 2.254 6.794 5.565 9.495 9.096 4.284 5.603 8.639 11.152 12.983 16.709 1.43 1.829 1.266 2.31-0.738 3.451-1.982 1.128-3.878 2.427-5.718 3.778-1.243 0.913-1.026 2.142 0.354 3.015 4.937 3.124 10.396 5.055 15.928 6.74 2.357 0.718 3.584 2.307 4.477 4.312 0.847 1.901 0.295 3.188-1.739 4.004-3.066 1.23-6.2 2.292-9.28 3.487-1.565 0.607-3.183 1.183-4.585 2.074-1.66 1.054-2.923 0.345-3.664-0.849-2.25-3.625-4.26-7.399-6.398-11.176 0.328-0.139 0.525-0.308 0.668-0.271 4.042 1.06 8.079 2.137 12.115 3.218 3.113 0.833 6.219 1.693 9.343 2.483 0.372 0.094 1.034-0.056 1.21-0.324 0.201-0.305 0.172-0.991-0.052-1.294-0.386-0.521-0.934-1.058-1.527-1.267-6.107-2.147-12.241-4.217-18.357-6.337-2.029-0.703-4.225-1.187-5.979-2.331-1.339-0.873-2.305-2.523-3.083-4.012-1.953-3.743-3.786-7.554-5.514-11.407-1.661-3.701-3.222-7.454-4.65-11.251-1.078-2.866-1.88-5.836-2.792-8.764-0.097-0.309-0.258-0.724-0.135-0.956 1.232-2.34-0.436-3.21-1.909-4.536-2.868-2.583-6.566-3.462-9.778-5.308-1.241-0.713-2.388 0.106-2.091 1.577 0.695 3.432 1.154 7 2.465 10.203 4.012 9.803 8.38 19.459 12.602 29.176 0.045 0.103-0.023 0.256-0.073 0.673-0.775-0.195-1.525-0.346-2.25-0.574-3.603-1.132-7.227-2.205-10.778-3.482-0.979-0.352-2.011-1.169-2.539-2.058-2.317-3.904-4.483-7.898-6.636-11.896-0.355-0.659-0.642-1.562-0.491-2.247 0.474-2.143-0.6-3.242-2.262-4.2-0.775-0.446-1.289-1.359-2.072-1.776-3.083-1.644-6.175-3.293-9.373-4.691-1.326-0.58-2.389 1.061-1.69 2.639 0.98 2.212 2.047 4.393 3.2 6.521 2.15 3.964 4.391 7.878 6.583 11.82 0.121 0.219 0.136 0.497 0.3 1.134-1.366-0.197-2.552-0.249-3.671-0.551-4.45-1.199-8.834-2.687-13.329-3.663-4.401-0.956-8.91-1.412-13.369-2.1-2.574-0.398-5.131-0.965-7.718-1.189-2.127-0.183-4.305-0.133-6.429 0.097-4.051 0.438-8.151 0.787-12.094 1.738-2.602 0.627-5.023 2.136-7.425 3.435-5.869 3.174-8.959 8.44-9.518 14.818-0.357 4.082 0.158 8.391 1.118 12.398 1.124 4.689 2.748 9.364 4.907 13.668 2.245 4.475 5.334 8.536 8.156 12.709 2.019 2.987 5.048 5.516 5.201 9.379 0.163 4.12 1.959 6.3 5.934 7.392 2.749 0.756 5.421 2.131 7.834 3.685 2.719 1.749 5.05 4.089 7.663 6.02 1.911 1.413 3.926 2.731 6.037 3.812s4.446 1.716 6.6 2.722c3.784 1.765 7.488 3.7 11.256 5.498 4.182 1.996 8.349 4.035 12.614 5.838 4.216 1.782 8.498 3.435 12.837 4.885 4.912 1.642 9.863 3.251 14.908 4.37 2.736 0.607 5.706 0.207 8.568 0.161 0.553-0.009 1.235-0.354 1.625-0.764 2.099-2.211 4.348-4.339 6.049-6.834 0.555-0.815-0.361-2.652-0.648-4.012-0.129-0.609-0.668-1.305-0.499-1.773 0.57-1.578 1.254-3.145 2.129-4.573 0.651-1.062 1.662-1.101 2.462 0.023 1.331 1.871 2.847 3.645 3.925 5.653 2.817 5.245 6.442 9.878 10.204 14.449 1.914 2.326 3.323 5.068 5.251 7.38 2.322 2.785 4.854 5.415 7.478 7.92 2.217 2.115 4.549 4.181 7.106 5.844 1.921 1.25 4.251 1.914 6.455 2.674 1.392 0.48 2.419-0.361 2.302-1.707-0.125-1.417-0.431-3.143-1.33-4.107-2.638-2.826-5.745-5.212-8.411-8.015-2.292-2.41-4.265-5.13-6.311-7.765-1.777-2.288-3.484-4.634-5.177-6.986-1.285-1.785-2.495-3.624-3.748-5.432-0.343-0.496-0.753-0.948-1.08-1.453-0.77-1.187-1.461-2.428-2.271-3.587-0.989-1.416-2.103-2.744-3.097-4.157-2.334-3.312-4.805-6.546-6.882-10.015-1.632-2.726-3.675-5.152-5.24-7.924-1.583-2.804-3.515-5.413-5.325-8.086-2.336-3.447-2.141-3.835 0.413-6.776 1.621-1.865 3.54-3.502 5.472-5.06 1.571-1.266 2.331-0.892 3.425 0.857 4.423 7.077 8.837 14.161 13.394 21.151 2.529 3.879 5.147 7.729 8.055 11.325 5.349 6.613 11.13 12.83 18.482 17.329 2.447 1.498 4.921 2.954 7.413 4.376 0.511 0.292 1.151 0.44 1.744 0.482 0.465 0.033 0.95-0.2 1.426-0.314-0.176-0.483-0.189-1.128-0.516-1.42-1.253-1.116-2.71-2.014-3.902-3.185-2.942-2.892-5.84-5.835-8.642-8.862-2.357-2.545-4.702-5.127-6.791-7.89-3.546-4.691-6.963-9.484-10.273-14.344-1.231-1.806-1.902-3.984-3.027-5.875-1.133-1.906-2.583-3.621-3.771-5.499-2.583-4.085-5.052-8.244-7.648-12.321-0.726-1.141-0.778-2.199 0.364-2.771 4.841-2.425 9.736-4.743 14.642-7.035 3.625-1.693 5.955 0.45 8.244 3.569 2.026 2.76 3.879 5.648 5.902 8.41 3.933 5.369 7.924 10.694 11.907 16.025 0.883 1.182 1.761 2.381 2.765 3.457 2.941 3.153 5.965 6.227 8.918 9.368 4.335 4.611 7.844 9.794 10.456 15.559 1.639 3.618 1.383 7.32 0.118 10.982-0.636 1.838-0.217 3.404 0.781 4.993 1.831 2.915 3.845 5.659 7.172 6.934 1.035 0.397 2.366 0.36 3.484 0.136 3.11-0.622 5.551-1.969 7.249-5.066 1.307-2.386 1.047-3.899-0.233-6-1.095-1.798-1.582-3.967-2.46-6.293"/></g><g transform="translate(290.98 68.494)"><path d="m0 0c0.161-4.041-2.179-6.551-6.215-6.666-1.781-0.051-6.232 3.685-6.194 5.199 0.072 2.96 3.437 6.628 6.133 6.686 2.949 0.063 6.172-2.618 6.276-5.219"/></g><g transform="translate(336.4 39.361)"><path d="m0 0c3.214-0.037 5.287-2.227 5.229-5.524-0.022-1.274-2.894-3.191-4.695-3.207-2.064-0.017-4.487 2.4-4.74 5.419-0.118 1.397 2.438 3.333 4.206 3.312"/></g><g transform="translate(207.55 50.564)"><path d="m0 0c-0.511 1.873 1.768 3.713 4.23 3.975 1.687 0.179 3.776-1.808 3.886-3.503 0.143-2.188-2.141-4.544-4.457-4.598-2.329-0.054-3.567 1.342-3.659 4.126"/></g><g transform="translate(179.41 64.712)"><path d="m0 0c2.097-0.041 3.594-1.413 3.597-3.297 0.003-2.221-2.041-4.211-4.296-4.18-1.902 0.025-2.941 1.444-2.92 3.986 0.016 1.988 1.615 3.53 3.619 3.491"/></g><g transform="translate(273.38 53.721)"><path d="m0 0c0.047 1.825 1.79 3.505 3.53 3.402 1.869-0.111 3.805-1.994 3.726-3.625-0.103-2.131-1.6-3.591-3.633-3.541-2.168 0.054-3.678 1.622-3.623 3.764"/></g><g transform="translate(175.51 93.023)"><path d="m0 0c1.933 0.049 3.393-1.286 3.465-3.169 0.063-1.646-2.05-3.682-3.891-3.747-1.926-0.068-3.453 1.42-3.453 3.365 0.001 1.913 1.73 3.496 3.879 3.551"/></g><g transform="translate(287.06 195.08)"><path d="m0 0c-1.108-0.737-1.702-1.417-2.32-1.44-0.397-0.015-1.059 0.9-1.157 1.474-0.054 0.321 0.789 1.105 1.249 1.123 0.555 0.021 1.132-0.55 2.228-1.157"/></g><g transform="translate(325.79 132.45)"><path d="m0 0c-0.841-0.584-1.514-1.326-1.808-1.197-0.547 0.238-1.076 0.94-1.204 1.537-0.064 0.3 0.86 1.185 1.177 1.112 0.581-0.134 1.044-0.782 1.835-1.452"/></g><g fill="#fff" transform="translate(177.49 119)"><path d="m0 0c0.017-0.901 0.748-1.259 1.251-1.746 0.079-0.076 0.363-0.025 0.496 0.057 0.731 0.449 1.541 0.827 2.144 1.414 1.375 1.339 2.645 2.788 3.962 4.187 0.377 0.4 0.776 0.778 1.154 1.176 0.171 0.179 0.321 0.379 0.468 0.579 0.211 0.287 0.394 0.595 0.62 0.869 0.189 0.229 0.457 0.398 0.629 0.637 0.683 0.951 1.328 1.93 2.017 2.877 0.278 0.382 0.659 0.69 0.946 1.068 0.796 1.047 1.595 2.094 2.344 3.175 1.252 1.806 2.808 3.378 3.943 5.276 0.709 1.187 1.552 2.295 2.349 3.428 0.322 0.458 0.7 0.876 1.021 1.334 1.023 1.467 2.011 2.958 3.053 4.411 0.62 0.863 1.362 1.64 1.965 2.514 0.522 0.756 0.853 1.649 1.398 2.385 0.964 1.301 2.138 2.428 2.931 3.878 0.605 1.107 1.384 2.126 2.151 3.134 0.635 0.833 1.366 1.593 2.053 2.387 0.279 0.323 0.573 0.637 0.825 0.982 0.482 0.659 0.95 1.329 1.403 2.008 0.661 0.993 1.307 1.996 1.952 2.999 0.236 0.365 0.13 0.646-0.236 0.861-0.609 0.359-1.191 0.704-1.899 0.935-1.734 0.568-3.386 1.389-5.078 2.092-0.247 0.103-0.529 0.131-0.798 0.173-0.437 0.068-0.903 0.045-1.308 0.194-0.684 0.251-1.324 0.618-1.992 0.918-1.258 0.564-2.542 1.076-3.777 1.688-0.539 0.268-1.009 0.369-1.528 0.071-0.614-0.352-1.193-0.731-1.596-1.359-0.285-0.446-0.628-0.946-1.072-1.171-0.351-0.178-0.516-0.367-0.656-0.677-0.192-0.429-0.38-0.861-0.607-1.271-1.082-1.962-2.195-3.906-3.257-5.879-0.368-0.683-0.605-1.435-0.928-2.143-0.382-0.837-0.482-1.807-1.235-2.476-0.179-0.159-0.183-0.511-0.28-0.769-0.135-0.358-0.265-0.72-0.427-1.066-0.181-0.386-0.4-0.754-0.596-1.133-0.553-1.075-1.098-2.154-1.656-3.226-0.464-0.891-0.954-1.769-1.407-2.665-0.428-0.847-0.833-1.706-1.229-2.569-0.33-0.72-0.638-1.45-0.943-2.18-0.147-0.35-0.243-0.722-0.404-1.064-0.386-0.821-0.821-1.62-1.19-2.448-0.295-0.662-0.55-1.346-0.772-2.036-0.383-1.19-0.731-2.392-1.084-3.592-0.11-0.372-0.155-0.766-0.289-1.128-0.617-1.67-1.262-3.331-1.881-5-0.26-0.702-0.489-1.415-0.718-2.127-0.484-1.499-1.167-2.956-1.008-4.598 0.01-0.108-0.013-0.228-0.051-0.331-0.305-0.844-0.7-1.665-0.905-2.532-0.192-0.816-0.187-1.679-0.268-2.521m10.846 87.119c0.118-0.381 0.294-1.153 0.604-1.866 0.18-0.412 0.601-0.713 0.871-1.093 0.799-1.126 1.57-2.272 2.369-3.398 0.431-0.608 0.875-1.21 1.354-1.78 0.794-0.944 1.593-1.887 2.443-2.78 0.62-0.651 1.325-1.221 1.992-1.826 0.403-0.366 0.783-0.761 1.215-1.088 0.738-0.56 1.509-1.076 2.265-1.612 0.963-0.684 0.975-0.695 1.71 0.24 0.214 0.273 0.316 0.631 0.499 0.931 0.953 1.569 1.937 3.119 2.867 4.7 0.681 1.158 1.268 2.37 1.949 3.528 0.68 1.158 1.434 2.272 2.137 3.416 0.589 0.959 1.14 1.94 1.727 2.899 0.421 0.688 0.886 1.348 1.305 2.038 0.269 0.445 0.462 0.937 0.74 1.376 0.209 0.329 0.536 0.584 0.744 0.913 0.776 1.23 1.488 2.502 2.295 3.71 0.812 1.215 1.73 2.36 2.565 3.562 0.794 1.144 1.544 2.32 2.308 3.486 0.637 0.974 1.181 2.025 1.921 2.913 0.843 1.009 1.403 2.194 2.273 3.194 1.087 1.249 1.947 2.698 2.905 4.06 1.012 1.439 2.037 2.87 3.032 4.322 0.508 0.742 0.924 1.548 1.45 2.277 0.925 1.281 1.878 2.544 2.866 3.777 0.792 0.987 1.174 2.265 2.208 3.077 0.066 0.052 0.097 0.15 0.142 0.228 0.424 0.745 0.804 1.519 1.279 2.229 1.322 1.973 2.691 3.915 4.024 5.88 0.494 0.73 0.946 1.488 1.406 2.24 0.324 0.53 0.62 1.075 0.941 1.606 0.493 0.813 1.074 1.584 1.478 2.439 0.587 1.241 1.042 2.544 1.565 3.816 0.411 0.999 0.885 1.973 1.249 2.988 0.359 0.998 0.649 2.025 0.903 3.055 0.175 0.711 0.25 1.447 0.344 2.176 0.035 0.269-0.045 0.557 0.003 0.822 0.236 1.307 0.489 2.609 0.14 3.935-0.064 0.241-0.143 0.48-0.187 0.724-0.156 0.848-0.206 1.728-0.475 2.537-0.254 0.765-0.242 1.649-1.093 2.216-0.451 0.3-0.568 1.063-0.916 1.561-0.785 1.123-1.46 2.333-2.514 3.253-0.403 0.352-0.718 0.816-1.148 1.126-0.984 0.71-1.988 1.399-3.033 2.012-0.651 0.382-1.187 0.991-2.159 0.788-0.686-0.144-1.463 0.185-2.204 0.266-0.666 0.074-1.27 0.472-2.021 0.143-0.599-0.262-1.272-0.596-1.994-0.29-0.052 0.022-0.141-0.012-0.2-0.044-0.632-0.339-1.257-0.692-1.895-1.02-0.198-0.101-0.43-0.132-0.645-0.2-0.37-0.117-0.742-0.226-1.105-0.359-0.485-0.177-0.963-0.375-1.445-0.562-0.237-0.092-0.49-0.156-0.713-0.274-0.28-0.148-0.536-0.342-0.805-0.512-1.049-0.66-2.543-0.613-3.152-1.978-0.017-0.036-0.071-0.058-0.11-0.083-0.903-0.582-1.802-1.171-2.71-1.745-1.629-1.029-3.261-2.054-4.897-3.07-0.277-0.172-0.622-0.249-0.867-0.452-0.3-0.249-0.529-0.586-0.788-0.885-0.267-0.308-0.515-0.634-0.803-0.92-0.67-0.666-1.355-1.316-2.041-1.963-0.213-0.201-0.469-0.356-0.675-0.563-0.865-0.864-1.716-1.741-2.577-2.608-0.19-0.192-0.543-0.334-0.581-0.543-0.128-0.7-0.708-0.882-1.179-1.204-0.17-0.116-0.363-0.224-0.484-0.383-0.703-0.921-1.403-1.845-2.072-2.79-0.487-0.687-0.855-1.469-1.401-2.1-0.715-0.825-1.75-1.377-2.098-2.516-0.029-0.094-0.158-0.165-0.252-0.23-0.608-0.419-1.26-0.787-1.128-1.72 0.027-0.192-0.219-0.424-0.343-0.636-0.098-0.168-0.211-0.328-0.301-0.5-0.353-0.673-0.608-1.42-1.065-2.011-1.378-1.781-2.458-3.718-3.346-5.778-0.41-0.95-0.868-1.881-1.335-2.805-0.141-0.279-0.389-0.502-0.586-0.753-0.34-0.433-0.886-0.83-0.973-1.31-0.149-0.824-0.295-1.596-0.664-2.377-0.49-1.039-0.716-2.199-1.128-3.279-0.206-0.542-0.578-1.019-0.864-1.532-0.553-0.991-1.051-1.969-1.175-3.159-0.103-0.988-0.57-1.939-0.889-2.902-0.169-0.51-0.384-1-0.549-1.51-0.238-0.74-0.346-1.54-0.699-2.21-0.403-0.77-0.533-1.49-0.475-2.35 0.044-0.66-0.195-1.34-0.334-2.01-0.061-0.3-0.301-0.6-0.263-0.87 0.183-1.297-0.7-2.595 0.011-3.888 0.043-0.077-0.034-0.216-0.044-0.327-0.023-0.259-0.069-0.52-0.052-0.777 0.053-0.798 0.167-1.593 0.192-2.392 0.046-1.41-0.143-2.841 0.464-4.19 0.033-0.074 0.009-0.187-0.017-0.273-0.175-0.6-0.147-1.154 0.287-1.657 0.112-0.13 0.146-0.335 0.197-0.512 0.204-0.706 0.386-1.42 0.609-2.12 0.058-0.183 0.256-0.316 0.356-0.491 0.537-0.945 1.24-1.824 1.265-3.387m71.459 86.448c0.459-0.812 0.934-1.617 1.373-2.44 0.27-0.505 0.487-1.038 0.724-1.56 0.028-0.061 0.011-0.153 0.052-0.197 0.797-0.877 0.596-1.952 0.602-2.987 0.001-0.136-0.009-0.309 0.066-0.401 0.673-0.833 0.55-1.87 0.708-2.825 0.062-0.373-0.093-0.818-0.254-1.185-0.304-0.695-0.282-1.315-0.081-2.067 0.167-0.625-0.074-1.391-0.245-2.068-0.278-1.102-0.634-2.186-0.986-3.268-0.093-0.288-0.33-0.527-0.437-0.812-0.545-1.46-1.011-2.942-1.727-4.344-0.703-1.375-1.208-2.849-1.835-4.265-0.337-0.763-0.64-1.531-1.535-1.93-0.292-0.131-0.285-0.855-0.497-1.265-0.364-0.707-0.788-1.385-1.197-2.069-0.314-0.527-0.651-1.04-0.961-1.569-0.568-0.971-1.112-1.957-1.697-2.918-0.083-0.136-0.383-0.126-0.501-0.256-0.252-0.279-0.44-0.615-0.674-0.912-0.27-0.346-0.56-0.676-0.845-1.01-0.042-0.049-0.122-0.069-0.155-0.121-0.922-1.458-1.806-2.94-2.773-4.367-0.39-0.575-1.009-0.992-1.429-1.552-0.406-0.542-0.687-1.178-1.033-1.767-0.087-0.146-0.221-0.386-0.323-0.381-0.648 0.034-0.646-0.51-0.871-0.875-0.391-0.633-0.797-1.262-1.259-1.843-0.591-0.742-1.186-1.499-1.886-2.131-0.827-0.745-0.98-1.8-1.454-2.702-0.463-0.88-1.323-1.297-1.994-1.933-0.498-0.474-0.984-1.063-1.212-1.695-0.335-0.925-0.829-1.661-1.562-2.291-0.319-0.275-0.627-0.62-0.802-0.997-0.782-1.684-1.964-3.078-3.116-4.502-0.311-0.385-0.494-0.872-0.761-1.296-0.686-1.09-1.385-2.172-2.08-3.257-0.037-0.057-0.067-0.131-0.121-0.164-1.118-0.688-1.654-1.816-2.269-2.904-0.569-0.997-1.261-1.931-1.868-2.914-0.217-0.351-0.299-0.785-0.521-1.131-0.783-1.214-1.579-2.421-2.411-3.601-0.55-0.778-1.193-1.491-1.75-2.264-0.244-0.339-0.342-0.778-0.567-1.134-0.759-1.199-1.564-2.368-2.314-3.572-0.701-1.126-1.327-2.299-2.044-3.415-0.368-0.573-0.905-1.037-1.289-1.603-0.42-0.618-0.765-1.29-1.118-1.952-0.238-0.447-0.377-0.955-0.656-1.372-0.811-1.214-1.551-2.511-2.555-3.545-0.622-0.641-0.539-1.455-1.021-2.104-0.413-0.557 0.231-1.229 0.589-1.593 0.656-0.667 1.399-1.306 2.443-1.46 0.498-0.073 0.935-0.499 1.424-0.708 0.817-0.349 1.663-0.631 2.477-0.987 0.326-0.142 0.581-0.446 0.906-0.6 0.396-0.187 0.845-0.263 1.246-0.442 0.744-0.333 1.454-0.746 2.207-1.053 1.036-0.423 2.101-0.774 3.151-1.164 1.002-0.371 1.979-0.832 3.007-1.105 0.879-0.233 1.838-0.425 2.718-0.307 0.555 0.075 1.199 0.657 1.502 1.185 0.546 0.951 1.307 1.663 2.027 2.449 0.654 0.715 1.104 1.613 1.674 2.409 0.836 1.167 1.712 2.307 2.547 3.476 0.524 0.732 0.968 1.522 1.513 2.237 0.699 0.918 1.48 1.775 2.196 2.682 0.752 0.953 1.481 1.926 2.198 2.906 0.905 1.237 1.774 2.502 2.687 3.734 0.801 1.082 1.662 2.121 2.458 3.208 0.758 1.036 1.435 2.132 2.204 3.159 0.781 1.045 1.612 2.053 2.455 3.048 0.617 0.729 1.236 1.433 1.223 2.47-0.001 0.11 0.113 0.242 0.208 0.327 0.299 0.266 0.675 0.469 0.911 0.78 0.708 0.93 1.499 1.781 2.153 2.776 0.711 1.084 1.499 2.24 2.812 2.889 0.635 0.314 1.189 1.041 1.488 1.711 0.275 0.617 0.666 0.9 1.182 1.228 0.889 0.565 1.707 1.245 2.547 1.887 0.663 0.506 1.019 0.452 1.503-0.252 0.052-0.076 0.099-0.171 0.173-0.214 1.009-0.589 0.765-1.519 0.653-2.406-0.105-0.827-0.198-1.658-0.357-2.476-0.089-0.459-0.326-0.888-0.451-1.343-0.374-1.364-0.492-2.837-1.453-3.965-1.024-1.202-2.068-2.398-3.211-3.483-0.916-0.871-2.034-1.451-3.326-1.702-1.318-0.257-1.388-0.324-2.238 0.007-0.519-0.636-1.183-1.231-1.569-1.972-0.691-1.323-1.788-2.291-2.683-3.432-0.014-0.019-0.026-0.045-0.045-0.052-0.975-0.33-1.055-1.142-1.229-2.009-0.254-1.267-1.289-2.101-2.051-3.079-0.882-1.134-1.78-2.256-2.652-3.398-0.834-1.095-1.653-2.202-2.46-3.317-0.377-0.521-0.678-1.098-1.069-1.607-1.029-1.342-2.084-2.665-3.136-3.989-0.591-0.744-1.258-1.436-1.783-2.224-0.528-0.792-0.946-1.662-1.368-2.52-0.229-0.466-0.358-0.98-0.55-1.465-0.277-0.703 0.011-1.236 0.736-1.458 1.372-0.42 2.789-0.415 4.196-0.549 0.873-0.084 1.778-0.309 2.565-0.686 0.91-0.435 1.798-0.096 2.688-0.201 1.129-0.133 2.267-0.195 3.404-0.247 0.323-0.015 0.651 0.158 0.98 0.168 1.089 0.033 2.178 0.031 3.268 0.042 0.069 0.001 0.151-0.016 0.206 0.014 1.59 0.854 3.411 0.579 5.075 1.048 0.6 0.169 1.148 0.518 1.741 0.719 0.367 0.125 0.786 0.089 1.163 0.194 0.532 0.149 1.106 0.147 1.551 0.624 0.234 0.25 0.705 0.371 1.074 0.382 0.755 0.023 1.367 0.289 1.901 0.795 0.064 0.06 0.161 0.089 0.247 0.122 1.085 0.413 2.17 0.829 3.259 1.234 0.572 0.213 1.152 0.403 1.727 0.606 0.065 0.023 0.143 0.048 0.182 0.097 0.834 1.076 2.128 1.335 3.271 1.872 0.579 0.272 1.06 0.766 1.649 1.002 1.234 0.493 1.933 1.512 2.685 2.495 0.055 0.071 0.083 0.219 0.137 0.226 0.622 0.078 1.022 0.559 1.532 0.81 1.017 0.503 2.133 0.802 3.201 1.206 0.31 0.117 0.595 0.301 0.926 0.471 0.602-0.316 1.271-0.667 1.94-1.019 0.035 0.114 0.071 0.228 0.077 0.247 0.564-0.506 1.053-0.872 1.45-1.319 0.384-0.435 0.672-0.955 1.006-1.435 0.212-0.303 0.43-0.602 0.677-0.947 0.083-0.285 0.241-0.652 0.288-1.033 0.049-0.387 0.02-0.792-0.033-1.181-0.047-0.353-0.181-0.694-0.26-1.043-0.144-0.642-0.273-1.288-0.416-1.93-0.029-0.131-0.091-0.255-0.136-0.383-0.135-0.386-0.27-0.773-0.511-1.124 0.144-0.472 0.175-0.784-0.468-1.078-0.449-0.206-0.775-0.789-1.038-1.269-0.463-0.843-1.307-1.152-2.047-1.608-0.305-0.189-0.706-0.232-0.993-0.439-0.37-0.266-0.693-0.409-1.18-0.33-0.249 0.041-0.554-0.28-0.839-0.427-0.232-0.121-0.471-0.228-0.675-0.424-1.196 0.273-1.996-0.56-2.858-1.156-1.055-0.73-1.088-0.61-1.79-0.108-1.337-0.429-2.605-0.786-3.834-1.245-1.285-0.481-2.527-1.075-3.798-1.595-1.928-0.789-3.843-1.62-5.805-2.314-1.538-0.545-3.13-0.955-4.806-0.748-0.232 0.029-0.578-0.029-0.712-0.185-0.643-0.748-1.562-0.644-2.366-0.743-0.571-0.07-1.067-0.194-1.61-0.377-0.899-0.302-1.888-0.438-2.842-0.45-1.214-0.016-2.43 0.204-3.647 0.241-0.935 0.029-1.873-0.078-2.811-0.099-0.278-0.005-0.558 0.079-0.838 0.124-0.311 0.051-0.62 0.135-0.933 0.152-0.912 0.05-1.843 0.201-2.735 0.081-1.635-0.219-3.182 0.295-4.764 0.446-1.499 0.143-2.953 0.728-4.433 1.097-0.775 0.193-1.52 0.539-2.378 0.287-0.299-0.088-0.714 0.104-1.04 0.25-0.731 0.328-1.587-0.076-2.3 0.491-0.377 0.299-1.62-0.127-1.969-0.628-0.622-0.894-1.173-1.837-1.76-2.755-0.109-0.17-0.247-0.322-0.375-0.48-0.73-0.899-1.456-1.802-2.194-2.695-0.468-0.565-0.891-1.192-1.449-1.652-0.5-0.411-0.846-0.838-1.062-1.451-0.403-1.145-1.172-2.029-2.122-2.79-0.281-0.225-0.336-0.713-0.544-1.05-0.573-0.927-1.169-1.84-1.763-2.754-0.122-0.189-0.267-0.365-0.412-0.538-0.983-1.185-2.076-2.273-2.67-3.758-0.222-0.554-0.842-0.939-1.239-1.434-0.292-0.364-0.52-0.779-0.77-1.176-0.569-0.901-1.132-1.807-1.702-2.708-0.28-0.442-0.543-0.899-0.864-1.311-0.341-0.439-0.769-0.81-1.108-1.25-0.44-0.57-0.809-1.194-1.246-1.766-0.305-0.399-0.744-0.708-1-1.131-0.616-1.018-1.168-2.076-1.732-3.125-0.552-1.028-1.276-1.904-2.118-2.715-0.39-0.375-0.532-0.995-0.842-1.467-0.508-0.771-1.057-1.516-1.605-2.26-0.069-0.094-0.256-0.091-0.358-0.172-0.301-0.24-0.599-0.488-0.875-0.756-0.286-0.278-0.567-0.566-0.811-0.88-0.301-0.387-0.649-0.771-0.823-1.216-0.585-1.493-1.668-2.487-2.993-3.304-0.336-0.207-0.54-0.633-0.793-0.966-0.195-0.257-0.332-0.573-0.565-0.785-1.017-0.924-2.063-1.817-3.091-2.729-0.424-0.375-0.862-0.743-1.24-1.162-0.86-0.953-1.638-1.984-2.542-2.891-0.692-0.693-1.538-1.23-2.293-1.863-0.348-0.292-0.604-0.701-0.968-0.964-0.644-0.465-1.38-0.807-2.002-1.298-0.573-0.453-1.134-0.593-1.814-0.364-0.123 0.042-0.276 0.011-0.413-0.004-1.471-0.159-2.301 0.438-2.476 1.935-0.111 0.957-0.27 2.004-0.002 2.887 0.351 1.157 0.134 2.339 0.466 3.468 0.549 1.86 1.049 3.733 1.614 5.587 0.255 0.841 0.736 1.626 0.901 2.477 0.216 1.116 0.696 2.114 1.072 3.161 0.28 0.783 0.409 1.619 0.658 2.415 0.219 0.699 0.491 1.383 0.773 2.061 0.553 1.331 1.269 2.613 1.647 3.99 0.262 0.956 0.656 1.828 1.033 2.72 0.706 1.67 1.462 3.32 2.174 4.987 0.274 0.641 0.473 1.313 0.726 1.964 0.442 1.135 0.88 2.272 1.354 3.394 0.423 1 0.889 1.982 1.343 2.969 0.863 1.872 1.742 3.737 2.592 5.615 0.396 0.873 0.715 1.781 1.114 2.652 0.579 1.266 1.214 2.507 1.799 3.771 0.495 1.07 0.913 2.178 1.436 3.234 0.596 1.202 1.299 2.351 1.903 3.55 0.559 1.108 1.038 2.258 1.576 3.377 0.214 0.446 0.504 0.854 0.741 1.29 0.195 0.359 0.376 0.727 0.542 1.1 0.423 0.951 0.879 1.891 1.237 2.867 0.265 0.723-0.414 1.107-0.823 1.453-1.229 1.039-2.563 1.951-3.81 2.969-0.949 0.774-1.807 1.658-2.743 2.45-1.445 1.222-2.649 2.668-3.786 4.156-0.879 1.15-1.579 2.437-2.344 3.672-0.527 0.85-1.321 1.668-1.475 2.588-0.251 1.503-1.469 2.397-1.894 3.723-0.342 1.07-0.816 2.092-0.903 3.261-0.064 0.856-0.523 1.675-0.723 2.53-0.243 1.035-0.394 2.091-0.593 3.136-0.078 0.412-0.208 0.816-0.265 1.23-0.165 1.202-0.382 2.403-0.435 3.611-0.061 1.372 0.015 2.751 0.063 4.126 0.045 1.297 0.083 2.597 0.215 3.886 0.105 1.036 0.339 2.06 0.527 3.087 0.225 1.227 0.425 2.46 0.71 3.673 0.143 0.606 0.454 1.171 0.688 1.756 0.11 0.276 0.253 0.546 0.318 0.833 0.207 0.904 0.325 1.832 0.586 2.719 0.348 1.179 0.812 2.324 1.199 3.492 0.353 1.068 0.62 2.168 1.021 3.217 0.289 0.757 0.766 1.441 1.105 2.183 0.556 1.215 0.966 2.507 1.623 3.662 0.843 1.481 1.382 3.086 2.134 4.597 0.423 0.853 1.038 1.609 1.497 2.447 0.478 0.874 0.854 1.802 1.309 2.69 0.203 0.396 0.494 0.746 0.737 1.122 1.136 1.761 2.259 3.532 3.411 5.283 0.357 0.542 0.824 1.012 1.178 1.557 0.229 0.354 0.276 0.833 0.526 1.165 0.364 0.483 0.917 0.831 1.246 1.331 0.581 0.881 1.446 1.547 1.846 2.57 0.149 0.383 0.529 0.678 0.814 1.005 0.12 0.137 0.327 0.225 0.394 0.378 0.608 1.402 1.968 2.172 2.818 3.38 0.516 0.733 1.3 1.271 1.931 1.927 0.672 0.699 1.293 1.447 1.959 2.151 0.405 0.428 0.854 0.813 1.282 1.219 0.234 0.221 0.512 0.413 0.688 0.673 0.686 1.014 1.669 1.692 2.615 2.419 0.21 0.162 0.347 0.418 0.551 0.592 0.66 0.569 1.333 1.122 2.006 1.675 0.137 0.113 0.389 0.178 0.425 0.309 0.229 0.846 1.059 1.074 1.598 1.591 0.665 0.638 1.39 1.216 2.108 1.796 0.459 0.371 0.951 0.704 1.433 1.046 1.666 1.184 3.316 2.391 5.007 3.537 1.352 0.915 2.732 1.792 4.143 2.612 0.95 0.552 1.971 0.984 2.968 1.453 0.985 0.464 1.98 0.909 2.97 1.363 0.02 0.009 0.035 0.041 0.054 0.042 1.399 0.084 2.481 1.392 4.01 1.028 0.257-0.061 0.673 0.028 0.839 0.209 0.417 0.456 0.927 0.585 1.485 0.723 0.43 0.105 0.815 0.384 1.234 0.55 0.756 0.301 1.528 0.497 2.36 0.381 0.36-0.051 0.777-0.104 1.095 0.025 1.229 0.495 2.291-0.514 3.455-0.33 1.162 0.184 2.136-0.366 3.159-0.705 0.521-0.173 1-0.491 1.471-0.786 1.061-0.663 2.133-1.314 3.151-2.041 1.374-0.981 2.502-2.197 3.28-3.721 0.171-0.335 0.476-0.602 0.72-0.899 0.046 0.034 0.093 0.069 0.14 0.103" fill="#fff"/></g><g transform="translate(270.4 206.6)"><path d="m0 0c-0.389-0.16-0.778-0.32-1.167-0.481-0.053 0.268-0.107 0.536-0.161 0.804 0.399 0.064 0.798 0.129 1.197 0.194 0.044-0.172 0.088-0.345 0.131-0.517" fill="#e04265"/></g><g transform="translate(64.053 256.42)"><path d="m0 0c-4.351 0-7.423-4.031-7.423-11.965 0-7.999 3.072-11.966 7.423-11.966s7.423 3.967 7.423 11.966c0 7.934-3.072 11.965-7.423 11.965m0-34.489c-12.221 0-20.156 7.934-20.156 22.524 0 14.589 7.935 22.523 20.156 22.523 12.158 0 20.156-7.934 20.156-22.523 0-14.59-7.998-22.524-20.156-22.524"/></g><g transform="translate(140.9 255.97)"><path d="m0 0h-4.223v-7.87h4.287c2.623 0 4.095 1.663 4.095 3.967 0 2.367-1.536 3.903-4.159 3.903m5.695-33.273-5.759 15.165h-4.159v-15.165h-12.414v43.511h16.253c12.221 0 17.276-4.991 17.276-14.141 0-5.503-2.239-9.342-5.886-11.582v-0.128c0.767-1.343 2.111-4.287 3.135-6.59l4.735-11.07h-13.181z"/></g><g transform="translate(214.62 255.97)"><path d="m0 0h-3.647v-23.035h3.647c4.479 0 8.446 3.263 8.446 11.517 0 8.255-3.967 11.518-8.446 11.518m0.384-33.273h-16.445v43.511h17.021c10.622 0 20.219-6.719 20.219-21.308s-8.51-22.203-20.795-22.203"/></g><g transform="translate(275.85 222.7)"><path d="m0 0v43.511h29.114v-10.238h-16.701v-6.015h14.206v-9.662h-14.206v-7.358h17.853v-10.238h-30.266z"/></g><g transform="translate(362.55 255.97)"><path d="m0 0h-4.223v-7.87h4.287c2.624 0 4.095 1.663 4.095 3.967 0 2.367-1.535 3.903-4.159 3.903m5.695-33.273-5.759 15.165h-4.159v-15.165h-12.414v43.511h16.253c12.222 0 17.277-4.991 17.277-14.141 0-5.503-2.24-9.342-5.887-11.582v-0.128c0.768-1.343 2.111-4.287 3.135-6.59l4.735-11.07h-13.181z"/></g></g></svg>
